<svg width="128" height="128" viewBox="0 0 128 128" fill="none" xmlns="http://www.w3.org/2000/svg">
<g clip-path="url(#clip0_380_217)">
<rect width="128" height="128" rx="64" fill="#FFFFFF"/>
<rect width="131.2" height="72.4958" transform="translate(-7.10022 27.7521)" fill="#FFFFFF"/>
<path d="M106.135 62.3246L104.979 78.7047C87.0894 82.4083 58.9897 82.616 58.882 66.6529C58.7414 45.8334 110.17 43.5171 110.17 43.5171L106.135 48.0031" stroke="#1E90FF" stroke-width="9"/>
<path d="M16.4568 83.5374C15.5918 83.6501 14.7848 83.7467 14.0436 83.8282L19.6815 51.976C29.0846 50.1945 40.2148 49.328 49.1207 50.5871C54.073 51.2873 57.8892 52.5851 60.3522 54.3565C62.5993 55.9727 63.7477 57.9637 63.7216 60.8253C63.6887 64.4397 61.316 67.9915 56.0583 71.4446C50.8732 74.8499 43.7574 77.5413 36.3767 79.5653C29.056 81.5729 21.7735 82.8447 16.4568 83.5374Z" fill="#FFFFFF" stroke="#1E90FF" stroke-width="9"/>
</g>
<defs>
<clipPath id="clip0_380_217">
<rect width="128" height="128" rx="64" fill="white"/>
</clipPath>
</defs>
</svg>
