<svg width="180" height="180" viewBox="0 0 180 180" fill="none" xmlns="http://www.w3.org/2000/svg">
<g clip-path="url(#clip0_380_217)">
<path d="M153.556 87.5711L151.881 111.317C125.946 116.686 85.21 116.987 85.0538 93.8458C84.85 63.664 159.406 60.306 159.406 60.306L153.556 66.8094" stroke="black" stroke-width="11"/>
<path d="M23.6822 119.338C21.8748 119.574 20.2385 119.762 18.8072 119.906L27.3402 71.696C41.1859 69.0108 57.7695 67.6646 71.0463 69.5416C78.3009 70.5673 84.0202 72.4825 87.7827 75.1885C91.2812 77.7048 93.1342 80.8912 93.0931 85.4066C93.0407 91.152 89.2579 96.5674 81.5217 101.648C73.8744 106.671 63.44 110.607 52.6983 113.552C42.0299 116.478 31.4247 118.33 23.6822 119.338Z" stroke="black" stroke-width="11"/>
</g>
<defs>
<clipPath id="clip0_380_217">
<rect width="180" height="180" rx="90" fill="white"/>
</clipPath>
</defs>
</svg>
