<svg width="28" height="26" viewBox="0 0 26 24" fill="none" xmlns="http://www.w3.org/2000/svg"><path d="M15.756 21.483a3.22 3.22 0 0 1-.192-.256c-.128-.199-.115-1.133-.115-1.133s1.3-.9 2.405-1.845c1.106-.946 1.913-2.057 2.095-3.276.182-1.218-.336-2.198-.587-2.716-.252-.519-.35-1.163-.308-1.877.042-.714.14-.756-.056-1.386-.196-.63-.213-.673-.032-.893.182-.22.523-.235 1.174-.258.376-.013 1.012-.102 1.691-.24A9.825 9.825 0 0 1 22.865 12c0 4.488-3.007 8.287-7.11 9.483Zm-2.768.393h.024-.024ZM3.135 12c0-1.579.373-3.072 1.034-4.397.679.138 1.315.227 1.69.24.652.023.993.038 1.175.258.182.22.164.262-.032.893-.196.63-.098.672-.056 1.386.042.714-.056 1.358-.308 1.877-.251.518-.769 1.498-.587 2.716.182 1.219.989 2.33 2.095 3.276a34.562 34.562 0 0 0 2.405 1.845s.013.934-.115 1.133c-.048.074-.12.168-.191.256-4.103-1.197-7.11-4.995-7.11-9.483Zm15.04-8.404c-.479.878-.54 1.579-.673 1.927-.169.442-.429.247-.715 0-.286-.248-1.74-.98-3.017-1.148a5.454 5.454 0 0 0-.77-.043 5.454 5.454 0 0 0-.77.043c-1.277.167-2.73.9-3.017 1.148-.286.247-.546.442-.715 0-.133-.348-.194-1.049-.674-1.927A9.797 9.797 0 0 1 13 2.124c1.897 0 3.67.54 5.176 1.472Zm6.851 2.176C25.801 4.669 26 3.63 26 3.045s-.12-1.756-.514-2.375c-.394-.62-1.71-.665-2.913-.428-.896.176-2.095.853-3.04 1.693A11.893 11.893 0 0 0 13 0c-2.355 0-4.606.676-6.532 1.935C5.522 1.095 4.323.418 3.426.242 2.223.005.909.05.514.67.121 1.289 0 2.46 0 3.045s.2 1.624.974 2.727c.39.557.825.924 1.159 1.15A11.972 11.972 0 0 0 1.013 12c0 3.205 1.247 6.219 3.511 8.485A11.901 11.901 0 0 0 13 24a11.9 11.9 0 0 0 8.476-3.515A11.928 11.928 0 0 0 24.986 12c0-1.784-.386-3.508-1.119-5.077a4.544 4.544 0 0 0 1.16-1.151Z" fill="hsl(281, 35%, 51%)"></path></svg>