
<svg xmlns="http://www.w3.org/2000/svg" width="32" height="32" viewBox="0 0 32 32" fill="none"><rect width="32" height="32" fill="#010481"></rect><path d="M21.9209 6.07467H5.42557V7.66909C5.42557 11.6248 8.84164 14.8419 13.0388 14.8419H21.9209C24.487 14.8419 26.5744 12.8753 26.5744 10.4576C26.5744 8.03985 24.487 6.07467 21.9209 6.07467Z" fill="white"></path><path d="M18.9597 17.2306H10.0791C7.51292 17.2306 5.42557 19.1972 5.42557 21.6149C5.42557 24.0326 7.51292 25.9992 10.0791 25.9992H26.5744V24.4048C26.5744 20.449 23.1583 17.232 18.9612 17.232L18.9597 17.2306Z" fill="white"></path><path d="M24.8865 7.70254C24.0931 6.95497 23.0369 6.54093 21.9039 6.54093C20.7714 6.54093 19.7151 6.95606 18.9213 7.70254L24.8865 7.70254ZM24.8865 7.70254C26.5122 9.23413 26.5122 11.7148 24.8865 13.2464L13.078 24.3719C12.2841 25.1185 11.2277 25.5337 10.0951 25.5337C8.96203 25.5337 7.90591 25.1197 7.11243 24.3721C5.48679 22.8405 5.48679 20.3598 7.11243 18.8282L18.921 7.70281L24.8865 7.70254Z" fill="#010481" stroke="white" stroke-width="0.932515"></path></svg>